<svg width="38" height="33" viewBox="0 0 38 33"  xmlns="http://www.w3.org/2000/svg">
  <path d="M33.7331 3.68351C32.8819 2.83185 31.8712 2.15625 30.7587 1.69531C29.6463 1.23438 28.454 0.997131 27.2498 0.997131C26.0457 0.997131 24.8533 1.23438 23.7409 1.69531C22.6285 2.15625 21.6177 2.83185 20.7665 3.68351L18.9998 5.45017L17.2331 3.68351C15.5137 1.96402 13.1815 0.998023 10.7498 0.998023C8.31809 0.998023 5.98597 1.96402 4.26648 3.68351C2.54699 5.40299 1.58099 7.73512 1.58099 10.1668C1.58099 12.5986 2.54699 14.9307 4.26648 16.6502L6.03314 18.4168L18.9998 31.3835L31.9665 18.4168L33.7331 16.6502C34.5848 15.7989 35.2604 14.7882 35.7213 13.6758C36.1823 12.5633 36.4195 11.371 36.4195 10.1668C36.4195 8.96269 36.1823 7.77035 35.7213 6.65792C35.2604 5.54548 34.5848 4.53477 33.7331 3.68351Z" fill="white"/>
</svg>
